<?xml version="1.0" encoding="UTF-8"?>
<svg id="Layer_1" xmlns="http://www.w3.org/2000/svg" version="1.1" viewBox="0 0 2326.53 1058.18">
  <!-- Generator: Adobe Illustrator 30.3.0, SVG Export Plug-In . SVG Version: 2.1.3 Build 182)  -->
  <defs>
    <style>
      .st0 {
        fill-rule: evenodd;
      }
    </style>
  </defs>
  <path class="st0" d="M1327.95,196.71c22.9-27.61,146.36-173.78,146.36-173.78h466.08c236.01,0,401.05,123.6,363.31,282.43-37.69,158.84-262.61,282.46-497.51,282.46h-312.44l93.73-394.57h220.28l-64.19,270.2h49.44c131.5,0,256-47.95,282.17-158.09,24.05-101.14-63.2-158.08-204.81-158.08h-51.67l-214.38.18-506.08,571.2-198.75-561.25s-1.45-3.58-3.29-8.42c-.45-1.15-4.25-5.15-6.29-4.38-3.71,1.37-3.11,7.82-2.46,9.22,1.62,3.45,2.1,4.76,2.54,6.45,17.74,43.32,18.75,116.03,11.54,145.09-39.31,158.46-262.64,282.46-497.51,282.46H91.6l93.75-394.57h220.27l-64.19,270.2h49.44c131.49,0,255.27-47.95,281.43-158.09,24.02-101.14-62.48-158.08-204.07-158.08h-51.68l-220.27-.1,29.53-124.25h291.86l387.1-.51v.51h159.39s44.99,131.79,58.95,171.67c66.78,190.75,55.73,203.65,55.73,203.65,0,0-8.03-12.31,149.13-201.55h0ZM29.67,873.63c0-84.25,482-152.55,1076.5-152.55s1076.5,68.3,1076.5,152.55-481.96,152.58-1076.5,152.58S29.67,957.91,29.67,873.63h0ZM1067.21,927.49c135.79,0,245.83-22.75,245.83-50.87s-110.04-50.84-245.83-50.84-245.8,22.77-245.8,50.84,110.05,50.87,245.8,50.87h0Z"/>
</svg>